<?xml version="1.0" encoding="UTF-8"?><svg id="dpdhl_icons" xmlns="http://www.w3.org/2000/svg" viewBox="0 0 48 48"><rect x="4" y="19" width="10" height="2"/><rect x="7" y="23" width="7" height="2"/><rect x="10" y="27" width="4" height="2"/><path d="M44.4748,22.3873l-4.8218-5.6255c-.4145-.4835-1.0195-.7618-1.6564-.7618h-.9966v-1c0-.5523-.4477-1-1-1h-2c-.5523,0-1,.4477-1,1v1H16v12.9868c0,1.1118,.9013,2.0132,2.0132,2.0132h.9868c0,1.6569,1.3431,3,3,3s3-1.3431,3-3h12c0,1.6569,1.3431,3,3,3s3-1.3431,3-3h2v-7.193c0-.5208-.1863-1.0244-.5252-1.4197Zm-5.4748-3.3873l2.5714,3h-4.5714v-3h2Zm-11.5,8h-3v-2.5h-2.5v-3h2.5v-2.5h3v2.5h2.5v3h-2.5v2.5Z"/></svg>