<?xml version="1.0" encoding="UTF-8"?><svg id="dpdhl_icons" xmlns="http://www.w3.org/2000/svg" viewBox="0 0 48 48"><path d="M21.7089,16.8904l8.2932,8.5276,8.2935-8.5279c1.0927-1.0848,1.7063-2.5615,1.7045-4.1012,.0028-3.1939-2.5841-5.7853-5.778-5.7881-1.5982-.0013-3.1257,.6587-4.22,1.8235-2.1876-2.3288-5.8488-2.4433-8.1777-.2557-2.3288,2.1876-2.4433,5.8488-.2557,8.1776,.046,.0489,.0927,.097,.1403,.1442Z"/><path d="M41.8574,35.2568c-.4106-1.0244-1.5742-1.5205-2.5996-1.1143l-9.6426,3.8574h-8.6152c-.5522,0-1-.4478-1-1s.4478-1,1-1h8.0005c1.1045,0,2-.8955,2-2s-.8955-2-2-2h-5.1719l-2.4141-2.4141c-.375-.375-.8838-.5859-1.4141-.5859h-6c-.4326,0-.854,.1406-1.2002,.4004l-2.8003,2.1002v-3.5006H6v16h4v-2H30.0005c.2544,0,.5063-.0488,.7427-.1426l10-4c1.0259-.4111,1.5244-1.5742,1.1143-2.6006Z"/></svg>