<?xml version="1.0" encoding="UTF-8"?><svg id="dpdhl_icons" xmlns="http://www.w3.org/2000/svg" viewBox="0 0 48 48"><path d="m36.0082,4H11.9918c-1.1,0-1.9917.8916-1.9918,1.9916h0v36.0167c0,1.1.8917,1.9917,1.9917,1.9917h24.0165c1.1,0,1.9917-.8916,1.9918-1.9916h0V5.9917c0-1.1-.8917-1.9917-1.9917-1.9917h0Zm-2.0082,22H14V8h20v18Zm-7-12.9915c0,1.6616-1.347,3.0085-3.0085,3.0085s-3.0085-1.347-3.0085-3.0085,1.347-3.0085,3.0085-3.0085,3.0085,1.347,3.0085,3.0085Zm2.2785,6.6627l.7215,4.3288h-12l.7215-4.3288c.1607-.9644.9951-1.6712,1.9728-1.6712h6.6115c.9777,0,1.8121.7068,1.9728,1.6712Zm4.7215,15.3288h-12v-2h12v2Zm-4,5h-8v-2h8v2Zm-10.9688-4.3152l-2.2812,2.3152-2.2811-2.3151c-.2896-.2846-.4689-.6783-.4689-1.1135,0-.8679.7128-1.5714,1.5921-1.5714.4568,0,.8676.191,1.1579.4951.2903-.3042.7011-.4951,1.1579-.4951.8793,0,1.5921.7035,1.5921,1.5714,0,.4351-.1793.8289-.4688,1.1134Z"/></svg>